# AST/ASF file generated using VICON BodyLanguage
# -----------------------------------------------
:version 1.10
:name VICON
:units
  mass 1.0
  length 0.45
  angle deg
:documentation
   .ast/.asf automatically generated from VICON data using
   VICON BodyBuilder and BodyLanguage model FoxedUp or BRILLIANT.MOD
:root
   order TX TY TZ RX RY RZ
   axis XYZ
   position 0 0 0  
   orientation 0 -0 0 
:bonedata
  begin
     id 1 
     name lhipjoint
     direction 0.500677 -0.737119 0.453848 
     length 2.34727 
     axis 0 -0 0  XYZ
  end
  begin
     id 2 
     name lfemur
     direction 0.34202 -0.939693 0  
     length 7.53653  
     axis 0 -0 20  XYZ
    dof rx ry rz
    limits (-160.0 20.0)
           (-70.0 70.0)
           (-60.0 70.0)
  end
  begin
     id 3 
     name ltibia
     direction 0.34202 -0.939693 0   
     length 6.85572   
     axis 0 -0 20   XYZ
    dof rx
    limits (-10.0 170.0)
  end
  begin
     id 4 
     name lfoot
     direction 0.155313 -0.426718 0.890949   
     length 2.18324   
     axis -90 -1.13533e-015 20   XYZ
    dof rx rz
    limits (-45.0 90.0)
           (-70.0 20.0)
  end
  begin
     id 5 
     name ltoes
     direction 1.53474e-011 -4.21647e-011 1   
     length 1.06748   
     axis -90 -1.13533e-015 20   XYZ
    dof rx
    limits (-90.0 20.0)
  end
  begin
     id 6 
     name rhipjoint
     direction -0.632471 -0.659587 0.406111   
     length 2.62319  
     axis 0 -0 0  XYZ 
  end
  begin
     id 7 
     name rfemur
     direction -0.34202 -0.939693 0   
     length 7.21735   
     axis 0 -0 -20   XYZ
    dof rx ry rz
    limits (-160.0 20.0)
           (-70.0 70.0)
           (-70.0 60.0)
  end
  begin
     id 8 
     name rtibia
     direction -0.34202 -0.939693 0   
     length 7.02558   
     axis 0 -0 -20   XYZ
    dof rx
    limits (-10.0 170.0)
 end
 begin
     id 9 
     name rfoot
     direction -0.16057 -0.441164 0.882945   
     length 2.10014  
     axis -90 1.13533e-015 -20   XYZ
    dof rx rz
    limits (-45.0 90.0)
           (-20.0 70.0)
  end
  begin
     id 10 
     name rtoes
     direction -1.53553e-011 -4.2192e-011 1   
     length 1.02554   
     axis -90 1.13533e-015 -20   XYZ
    dof rx
    limits (-90.0 20.0)
  end
  begin
     id 11 
     name lowerback
     direction 0.0401429 0.998861 -0.0258085   
     length 1.80848   
     axis 0 -0 0   XYZ
    dof rx ry rz
    limits (-20.0 45.0)
           (-30.0 30.0)
           (-30.0 30.0)
  end
  begin
     id 12 
     name upperback
     direction -0.0130978 0.999914 -0.000352645   
     length 1.8116   
     axis 0 -0 0   XYZ
    dof rx ry rz
    limits (-20.0 45.0)
           (-30.0 30.0)
           (-30.0 30.0)
  end
  begin
     id 13 
     name thorax
     direction -0.0300198 0.999453 0.0138573   
     length 1.81778   
     axis 0 -0 0   XYZ
    dof rx ry rz
    limits (-20.0 45.0)
           (-30.0 30.0)
           (-30.0 30.0)
  end
  begin
     id 14 
     name lowerneck
     direction -0.0401726 0.999191 -0.00173647   
     length 2.10594   
     axis 0 -0 0   XYZ
    dof rx ry rz
    limits (-20.0 45.0)
           (-30.0 30.0)
           (-30.0 30.0)
  end
  begin
     id 15 
     name upperneck
     direction 0.0119835 0.998501 0.0534085   
     length 2.07325   
     axis 0 -0 0   XYZ
    dof rx ry rz
    limits (-20.0 45.0)
           (-30.0 30.0)
           (-30.0 30.0)
  end
  begin
     id 16
     name head
     direction 0.00628309 0.999826 0.0175921  
     length 2.15096  
     axis 0 -0 0   XYZ
    dof rx ry rz
    limits (-20.0 45.0)
           (-30.0 30.0)
           (-30.0 30.0)
  end
  begin
     id 17 
     name lclavicle
     direction 0.895501 0.429681 -0.115981  
     length 4.18092  
     axis 0 -0 0   XYZ
    dof ry rz
    limits (-20.0 10.0)
           (0.0 20.0)
  end
  begin
     id 18 
     name lhumerus
     direction 1 -4.48961e-011 -3.38433e-028   
     length 5.77237   
     axis 180 -30 -90   XYZ
    dof rx ry rz
    limits (-60.0 90.0)
           (-90.0 90.0)
           (-90.0 90.0)
  end
  begin
     id 19
     name lradius
     direction 1 -4.4901e-011 1.11983e-026   
     length 2.91878   
     axis 180 -30 -90   XYZ
    dof rx
    limits (-10.0 170.0)
  end
  begin
     id 20
     name lwrist
     direction 1 -4.48934e-011 1.88176e-026   
     length 1.45939   
     axis -1.23311e-014 90 90   XYZ
    dof ry
    limits (-180.0 0.0)
 end
  begin
     id 21 
     name lhand
     direction 1 -4.4895e-011 3.76352e-026   
     length 1.06566   
     axis -2.40147e-014 90 90   XYZ
    dof rx rz
    limits (-90.0 90.0)
           (-45.0 45.0)
  end
  begin
     id 22 
     name lfingers
     direction 1 -4.49005e-011 7.52705e-026   
     length 0.859162   
     axis -4.80295e-014 90 90   XYZ
    dof rx
    limits (0.0 90.0)
  end
  begin
     id 23
     name lthumb
     direction 0.707107 -6.34885e-011 0.707107   
     length 1.23359   
     axis -90 45 -9.86935e-015   XYZ
    dof rx rz
    limits (-45.0 45.0)
           (-45.0 45.0)
  end
  begin
     id 24 
     name rclavicle
     direction -0.91006 0.40451 -0.0903492   
     length 4.23293  
     axis 0 -0 0   XYZ 
    dof ry rz
    limits (-10.0 20.0)
           (-20.0 0.0)
  end
  begin
     id 25 
     name rhumerus
     direction -1 -4.4897e-011 1.7415e-027  
     length 5.49854   
     axis 180 30 90   XYZ
    dof rx ry rz
    limits (-90.0 60.0)
           (-90.0 90.0)
           (-90.0 90.0)
  end
  begin
     id 26 
     name rradius
     direction -1 -4.48963e-011 1.21259e-026   
     length 3.1186   
     axis 180 30 90   XYZ
    dof rx
    limits (-10.0 170.0)
  end
  begin
     id 27 
     name rwrist
     direction -1 -4.48967e-011 1.88176e-026   
     length 1.5593   
     axis -1.23311e-014 -90 -90   XYZ
    dof ry
    limits (-180.0 0.0)
  end
  begin
     id 28
     name rhand
     direction -1 -4.4895e-011 3.76352e-026   
     length 0.71207   
     axis -2.40147e-014 -90 -90   XYZ
    dof rx rz
    limits (-90.0 90.0)
           (-45.0 45.0)
  end
  begin
     id 29
     name rfingers
     direction -1 -4.49005e-011 7.52705e-026   
     length 0.574089   
     axis -4.80295e-014 -90 -90   XYZ
    dof rx
    limits (0.0 90.0)
  end
  begin
     id 30
     name rthumb
     direction -0.707107 -6.34982e-011 0.707107   
     length 0.824281   
     axis -90 -45 9.86935e-015   XYZ
    dof rx rz
    limits (-45.0 45.0)
           (-45.0 45.0)
  end
:hierarchy
  begin
    root lhipjoint rhipjoint lowerback
    lhipjoint lfemur
    lfemur ltibia
    ltibia lfoot
    lfoot ltoes
    rhipjoint rfemur
    rfemur rtibia
    rtibia rfoot
    rfoot rtoes
    lowerback upperback
    upperback thorax
    thorax lowerneck lclavicle rclavicle
    lowerneck upperneck
    upperneck head
    lclavicle lhumerus
    lhumerus lradius
    lradius lwrist
    lwrist lhand lthumb
    lhand lfingers
    rclavicle rhumerus
    rhumerus rradius
    rradius rwrist
    rwrist rhand rthumb
    rhand rfingers
  end

#!OML:ASF C:\ViconDB\ViconDB\414\Spring2016\042216\male.ASF
:FULLY-SPECIFIED
:DEGREES
70
root -33.2426 17.1986 13.676 -159.732 81.0772 -164.739
lowerback -2.14913 -1.05577 3.8877
upperback -0.416673 -1.48305 -1.09089
thorax 0.649101 -0.733674 -3.34024
lowerneck -1.12926 6.48734 0.171032
upperneck -0.890847 8.64737 -1.45465
head -0.01431 4.32528 -0.433377
rclavicle 1.35174e-014 2.38542e-015
rhumerus -31.3476 -4.24925 -93.6606
rradius 27.7959
rwrist 30.9915
rhand 14.0123 -19.8061
rfingers 7.12502
rthumb 38.9211 -45.3487
lclavicle 1.35174e-014 2.38542e-015
lhumerus -34.3816 12.0545 87.8019
lradius 32.7669
lwrist -14.1881
lhand -6.81352 12.1566
lfingers 7.12502
lthumb 19.0502 41.2437
rfemur -7.57578 4.36951 17.2577
rtibia 21.7058
rfoot -21.2006 -8.21653
rtoes -17.4624
lfemur -9.01713 0.888006 -19.5576
ltibia 24.9887
lfoot -30.1781 9.19481
ltoes -12.7386
71
root -33.2172 17.2071 13.6605 -159.536 80.9117 -164.655
lowerback -2.14673 -1.06377 3.79591
upperback -0.45791 -1.49041 -1.11943
thorax 0.606337 -0.738949 -3.31754
lowerneck -1.38218 6.18757 0.315249
upperneck -0.440503 8.24869 -1.12022
head 0.150418 4.1226 -0.340286
rclavicle 2.50966e-015 -4.77083e-015
rhumerus -31.3833 -4.59117 -93.5658
rradius 27.8938
rwrist 31.3614
rhand 14.2745 -19.5747
rfingers 7.12502
rthumb 39.1683 -45.0463
lclavicle 2.50966e-015 -4.77083e-015
lhumerus -34.4932 11.8894 87.6973
lradius 32.9096
lwrist -13.5547
lhand -7.06114 12.5037
lfingers 7.12502
lthumb 18.812 41.614
rfemur -8.14376 3.71559 17.3548
rtibia 22.6388
rfoot -20.9254 -8.22524
rtoes -18.2876
lfemur -8.96206 1.52113 -19.5049
ltibia 24.7409
lfoot -30.3703 8.56254
ltoes -13.0631
72
root -33.2108 17.2181 13.6559 -158.509 80.6008 -163.793
lowerback -1.92601 -1.18059 3.59623
upperback -0.509855 -1.63511 -0.872335
thorax 0.429924 -0.815956 -2.94734
lowerneck -1.52991 5.92768 -0.243279
upperneck -0.352645 7.91046 -0.529243
head 0.151096 3.95496 -0.0748497
rclavicle -3.98066e-014 1.51076e-014
rhumerus -31.201 -4.09046 -93.4402
rradius 28.0014
rwrist 31.062
rhand 14.2026 -19.4298
rfingers 7.12502
rthumb 39.1005 -44.9209
lclavicle -3.98066e-014 1.51076e-014
lhumerus -34.5097 12.292 87.725
lradius 33.0673
lwrist -13.354
lhand -7.37655 12.5033
lfingers 7.12502
lthumb 18.5086 41.6427
rfemur -8.89691 3.00587 17.7493
rtibia 23.7032
rfoot -20.4549 -8.45619
rtoes -19.1591
lfemur -9.10062 2.14908 -19.1533
ltibia 24.5512
lfoot -30.3434 7.46754
ltoes -12.6324
73
root -33.1911 17.2292 13.6431 -158.229 80.4129 -163.693
lowerback -1.90151 -1.22027 3.69796
upperback -0.510911 -1.68787 -1.04768
thorax 0.40266 -0.843012 -3.18547
lowerneck -1.69136 5.66407 -0.235995
upperneck -0.27498 7.55844 0.210791
head 0.171304 3.78131 0.147036
rclavicle -5.96354e-015 -1.55052e-014
rhumerus -30.9555 -4.56888 -93.5666
rradius 27.9931
rwrist 31.62
rhand 14.1818 -19.0342
rfingers 7.12502
rthumb 39.081 -44.531
lclavicle -5.96354e-015 -1.55052e-014
lhumerus -34.5675 11.9167 87.3786
lradius 33.2647
lwrist -12.9371
lhand -7.87117 12.5737
lfingers 7.12502
lthumb 18.0328 41.7578
rfemur -9.71191 2.6465 17.9083
rtibia 24.9895
rfoot -20.0248 -9.00584
rtoes -18.9424
lfemur -9.15722 2.33795 -19.0681
ltibia 24.3455
lfoot -30.3526 7.06752
ltoes -11.8856
74
root -33.1637 17.2336 13.6282 -157.097 80.2618 -162.615
lowerback -1.85857 -1.2944 3.81387
upperback -0.515397 -1.78766 -1.00186
thorax 0.363631 -0.893871 -3.20385
lowerneck -1.51151 5.37831 -0.35375
upperneck -0.414539 7.18002 0.60879
head 0.0825184 3.59359 0.272993
rclavicle 1.42131e-014 -7.95139e-016
rhumerus -30.8245 -4.52144 -93.5298
rradius 28.1144
rwrist 31.9171
rhand 14.7004 -19.3544
rfingers 7.12502
rthumb 39.5696 -44.7089
lclavicle 1.42131e-014 -7.95139e-016
lhumerus -34.7361 11.8844 87.2553
lradius 33.4213
lwrist -12.5419
lhand -8.56306 12.7461
lfingers 7.12502
lthumb 17.367 41.9902
rfemur -10.5208 2.18867 18.2051
rtibia 26.4367
rfoot -19.5679 -9.39407
rtoes -18.9249
lfemur -9.10868 2.94951 -18.8245
ltibia 24.1872
lfoot -30.5253 6.32759
ltoes -12.1666
75
root -33.1386 17.2399 13.6151 -156.701 80.1418 -162.295
lowerback -1.77122 -1.4227 3.8513
upperback -0.5114 -1.95636 -0.989653
thorax 0.303837 -0.979582 -3.21243
lowerneck -1.49878 5.21408 -0.737383
upperneck -0.481929 6.96966 1.23911
head 0.0258091 3.49089 0.519884
rclavicle 2.59414e-014 -7.95139e-016
rhumerus -30.6425 -4.30825 -93.5595
rradius 28.2487
rwrist 32.3909
rhand 14.819 -19.9267
rfingers 7.12502
rthumb 39.6813 -45.2481
lclavicle 2.59414e-014 -7.95139e-016
lhumerus -34.8213 12.1993 86.9856
lradius 33.3683
lwrist -12.5464
lhand -8.65391 12.7325
lfingers 7.12502
lthumb 17.2796 41.9843
rfemur -11.4222 2.24266 18.4287
rtibia 28.0819
rfoot -19.0591 -10.4003
rtoes -19.3014
lfemur -9.04428 3.46372 -18.7213
ltibia 23.9728
lfoot -30.6038 5.70356
ltoes -12.0873
76
root -33.1133 17.2484 13.6039 -156.287 79.9961 -162.072
lowerback -1.69052 -1.57011 3.92443
upperback -0.582386 -2.14942 -1.03996
thorax 0.164727 -1.08039 -3.30398
lowerneck -1.3732 5.02948 -0.958345
upperneck -0.629426 6.73208 1.85675
head -0.0657286 3.37374 0.735587
rclavicle 4.39811e-014 -7.95139e-016
rhumerus -30.4555 -4.40433 -93.6191
rradius 28.4035
rwrist 33.2276
rhand 15.0206 -20.4769
rfingers 7.12502
rthumb 39.871 -45.7417
lclavicle 4.39811e-014 -7.95139e-016
lhumerus -35.0575 12.2588 86.6183
lradius 33.3996
lwrist -12.5581
lhand -8.88068 12.6553
lfingers 7.12502
lthumb 17.0613 41.9261
rfemur -12.6217 2.16763 18.6799
rtibia 29.8672
rfoot -18.193 -11.2771
rtoes -19.2445
lfemur -9.07614 3.78432 -18.6321
ltibia 23.6915
lfoot -30.5371 5.25861
ltoes -11.9767
77
root -33.0815 17.2552 13.5859 -156.273 80.1407 -162.003
lowerback -1.46212 -1.6221 3.91389
upperback -0.541386 -2.21045 -1.12319
thorax 0.0706973 -1.11266 -3.37777
lowerneck -1.21453 4.75914 -1.05483
upperneck -0.887593 6.38029 2.21073
head -0.179987 3.19757 0.850709
rclavicle 1.38652e-014 1.27222e-014
rhumerus -30.2017 -4.78623 -93.4585
rradius 28.4669
rwrist 34.7876
rhand 15.2872 -20.3908
rfingers 7.12502
rthumb 40.1219 -45.58
lclavicle 1.38652e-014 1.27222e-014
lhumerus -35.2314 12.2617 86.3387
lradius 33.4025
lwrist -12.4385
lhand -8.73841 12.674
lfingers 7.12502
lthumb 17.1982 41.9329
rfemur -13.6302 2.31134 18.7759
rtibia 31.7697
rfoot -18.0675 -12.284
rtoes -18.4047
lfemur -8.71524 4.28267 -18.764
ltibia 23.3305
lfoot -30.5324 5.19045
ltoes -11.7541
78
root -33.0539 17.2561 13.5671 -156.587 79.9661 -162.237
lowerback -1.02172 -1.78009 4.06711
upperback -0.619415 -2.4044 -1.24143
thorax -0.284899 -1.21982 -3.56981
lowerneck -0.781969 4.5203 -1.22179
upperneck -1.20931 6.07492 2.74044
head -0.366965 3.04174 1.02602
rclavicle 7.8023e-015 -1.59028e-015
rhumerus -30.2448 -4.83688 -93.5231
rradius 28.8047
rwrist 35.9319
rhand 15.3166 -20.8944
rfingers 7.12502
rthumb 40.1495 -46.0752
lclavicle 7.8023e-015 -1.59028e-015
lhumerus -35.5 12.2194 85.9777
lradius 33.2106
lwrist -12.495
lhand -9.35988 12.6146
lfingers 7.12502
lthumb 16.6 41.9247
rfemur -14.6065 2.29021 18.9662
rtibia 33.5602
rfoot -17.6364 -13.3288
rtoes -18.3964
lfemur -8.36981 3.66291 -18.7394
ltibia 23.0012
lfoot -30.5108 5.30994
ltoes -11.8336
79
root -33.017 17.2587 13.5524 -157.128 79.9829 -162.8
lowerback -0.87394 -1.90571 3.98921
upperback -0.611152 -2.56568 -1.34492
thorax -0.375435 -1.30242 -3.62727
lowerneck -0.62751 4.32968 -1.38365
upperneck -1.36039 5.83368 3.24057
head -0.455489 2.91972 1.20396
rclavicle -7.10655e-015 -7.95139e-015
rhumerus -30.0615 -4.74403 -93.6031
rradius 29.0864
rwrist 36.5912
rhand 15.4552 -21.1911
rfingers 7.12502
rthumb 40.28 -46.3321
lclavicle -7.10655e-015 -7.95139e-015
lhumerus -35.667 12.3709 85.6123
lradius 32.9596
lwrist -12.9673
lhand -9.55158 12.7203
lfingers 7.12502
lthumb 16.4154 42.0457
rfemur -15.7198 2.21677 19.0224
rtibia 35.2599
rfoot -17.4287 -14.0217
rtoes -18.035
lfemur -8.06038 3.50073 -18.8714
ltibia 22.62
lfoot -30.4761 5.351
ltoes -12.0013
80
root -32.9759 17.2518 13.5282 -157.236 79.7899 -162.822
lowerback -0.750435 -2.07704 4.12978
upperback -0.515586 -2.79232 -1.28482
thorax -0.371185 -1.41481 -3.64064
lowerneck -0.518073 4.1419 -1.83598
upperneck -1.56579 5.59614 3.63295
head -0.557844 2.80014 1.40034
rclavicle -4.91992e-015 -1.03368e-014
rhumerus -29.9015 -4.34383 -93.4864
rradius 29.536
rwrist 37.1332
rhand 15.3057 -21.3941
rfingers 7.12502
rthumb 40.1393 -46.578
lclavicle -4.91992e-015 -1.03368e-014
lhumerus -35.7851 12.2567 85.7058
lradius 32.9201
lwrist -13.1007
lhand -9.46745 12.839
lfingers 7.12502
lthumb 16.4964 42.1577
rfemur -16.6997 1.92203 19.282
rtibia 36.6955
rfoot -17.2986 -14.6963
rtoes -19.3263
lfemur -7.62267 3.11242 -18.8733
ltibia 22.2055
lfoot -30.3917 5.58667
ltoes -11.9844
81
root -32.9363 17.2603 13.5063 -157.96 79.6861 -163.479
lowerback -0.56324 -2.26843 4.16936
upperback -0.430206 -3.04192 -1.33215
thorax -0.416436 -1.53972 -3.70412
lowerneck -0.447591 3.95954 -2.11318
upperneck -1.69848 5.36424 3.99827
head -0.623999 2.68348 1.56258
rclavicle -2.5842e-014 7.95139e-016
rhumerus -29.8043 -3.92592 -93.5473
rradius 30.143
rwrist 36.9969
rhand 15.3643 -21.2146
rfingers 7.12502
rthumb 40.1944 -46.3817
lclavicle -2.5842e-014 7.95139e-016
lhumerus -35.6578 12.9292 85.3493
lradius 32.2382
lwrist -14.2
lhand -9.9165 12.8322
lfingers 7.12502
lthumb 16.0641 42.1863
rfemur -17.6394 1.76787 19.3206
rtibia 37.9233
rfoot -17.5905 -14.6218
rtoes -18.8263
lfemur -7.17031 2.82188 -19.0195
ltibia 21.7211
lfoot -30.2129 5.77453
ltoes -11.2987
82
root -32.8876 17.2677 13.486 -157.876 79.5339 -163.507
lowerback -0.725037 -2.3612 4.40145
upperback -0.348865 -3.17475 -1.47719
thorax -0.275913 -1.60252 -3.99278
lowerneck -0.391743 3.76553 -2.08139
upperneck -1.81324 5.11947 4.3726
head -0.671832 2.55941 1.67645
rclavicle 4.25399e-014 2.8625e-014
rhumerus -29.7617 -3.81208 -93.6957
rradius 30.7878
rwrist 36.7625
rhand 15.5664 -21.3422
rfingers 7.12502
rthumb 40.3845 -46.4511
lclavicle 4.25399e-014 2.8625e-014
lhumerus -35.7179 12.5385 85.1727
lradius 32.3044
lwrist -13.9605
lhand -9.26751 13.0986
lfingers 7.12502
lthumb 16.6889 42.4012
rfemur -18.7238 1.35044 19.5469
rtibia 38.8304
rfoot -17.7975 -14.3843
rtoes -19.1867
lfemur -6.84788 2.67961 -19.0137
ltibia 21.186
lfoot -30.1266 5.76772
ltoes -11.2047
83
root -32.8463 17.2758 13.4729 -158.955 79.3267 -164.705
lowerback -0.662392 -2.57467 4.07814
upperback -0.258625 -3.45644 -1.34933
thorax -0.219571 -1.7394 -3.67717
lowerneck -0.557076 3.63326 -2.5241
upperneck -1.90664 4.95233 4.57627
head -0.685801 2.47917 1.82326
rclavicle 2.95195e-014 9.54166e-015
rhumerus -29.5736 -3.27298 -93.5542
rradius 31.4313
rwrist 36.1169
rhand 15.4279 -20.9287
rfingers 7.12502
rthumb 40.2543 -46.0775
lclavicle 2.95195e-014 9.54166e-015
lhumerus -35.3267 13.301 85.1069
lradius 31.6179
lwrist -14.3148
lhand -9.63564 13.1585
lfingers 7.12502
lthumb 16.3345 42.4906
rfemur -19.8425 0.872327 19.5879
rtibia 39.5631
rfoot -17.8833 -13.9772
rtoes -18.1409
lfemur -6.46527 2.69999 -19.1514
ltibia 20.481
lfoot -30.007 5.45629
ltoes -11.2113
84
root -32.7936 17.2808 13.4566 -159.024 79.1355 -164.887
lowerback -0.842249 -2.75113 4.09617
upperback -0.120402 -3.70111 -1.33012
thorax 0.000421193 -1.85434 -3.68003
lowerneck -0.528609 3.50325 -2.83315
upperneck -2.15524 4.79924 4.97745
head -0.783175 2.40209 2.00671
rclavicle -7.45443e-015 1.90833e-014
rhumerus -29.4163 -3.09865 -93.4951
rradius 31.9856
rwrist 35.5878
rhand 15.2849 -20.5018
rfingers 7.12502
rthumb 40.1198 -45.6916
lclavicle -7.45443e-015 1.90833e-014
lhumerus -35.3104 13.1418 85.1839
lradius 31.8086
lwrist -14.318
lhand -8.87827 13.5226
lfingers 7.12502
lthumb 17.0636 42.7932
rfemur -20.8912 0.211814 19.8448
rtibia 39.996
rfoot -17.9233 -13.5628
rtoes -18.4346
lfemur -6.06972 2.5035 -19.1336
ltibia 19.8427
lfoot -29.9047 5.42406
ltoes -11.2349
